<svg width="160" height="224" viewBox="0 0 160 224" fill="blue" xmlns="http://www.w3.org/2000/svg">
<path d="M32 112V48C32 35.2696 37.0571 23.0606 46.0589 14.0589C55.0606 5.05713 67.2696 0 80 0C92.7304 0 104.939 5.05713 113.941 14.0589C122.943 23.0606 128 35.2696 128 48V112C128 124.73 122.943 136.939 113.941 145.941C104.939 154.943 92.7304 160 80 160C67.2696 160 55.0606 154.943 46.0589 145.941C37.0571 136.939 32 124.73 32 112ZM160 112C160 109.878 159.157 107.843 157.657 106.343C156.157 104.843 154.122 104 152 104C149.878 104 147.843 104.843 146.343 106.343C144.843 107.843 144 109.878 144 112C144 128.974 137.257 145.253 125.255 157.255C113.253 169.257 96.9739 176 80 176C63.0261 176 46.7475 169.257 34.7452 157.255C22.7428 145.253 16 128.974 16 112C16 109.878 15.1571 107.843 13.6569 106.343C12.1566 104.843 10.1217 104 8 104C5.87827 104 3.84344 104.843 2.34315 106.343C0.842856 107.843 0 109.878 0 112C0.0243612 131.825 7.39922 150.938 20.6984 165.641C33.9976 180.344 52.2764 189.593 72 191.6V216C72 218.122 72.8429 220.157 74.3431 221.657C75.8434 223.157 77.8783 224 80 224C82.1217 224 84.1566 223.157 85.6569 221.657C87.1572 220.157 88 218.122 88 216V191.6C107.724 189.593 126.002 180.344 139.302 165.641C152.601 150.938 159.976 131.825 160 112Z" fill="#2e2e2e"/>
</svg>
